<svg width="134" height="29" viewBox="0 0 134 29" fill="none" xmlns="http://www.w3.org/2000/svg">
<path fill-rule="evenodd" clip-rule="evenodd" d="M0 0.648512V27.7031H21.3094C23.9415 27.7031 26.6195 27.019 28.6781 25.5066C30.7827 23.9603 32.1706 21.5899 32.1706 18.4632C32.1706 16.3271 31.3734 14.5555 30.0384 13.2486C29.4871 12.709 28.8558 12.2592 28.1692 11.895C29.3386 10.7949 30.081 9.29216 30.081 7.51055C30.081 4.89468 28.8179 3.09328 27.0264 2.01725C25.3192 0.991837 23.1911 0.648512 21.3094 0.648512H0ZM21.0572 5.65369C22.1852 5.65369 23.1484 5.84799 23.7805 6.21441C24.3194 6.52681 24.6435 6.96219 24.6435 7.76274C24.6435 8.46977 24.3275 8.99475 23.7452 9.39456C23.122 9.82238 22.1976 10.088 21.1653 10.088H5.36547V5.65369H21.0572ZM20.769 15.1292C23.1457 15.1292 24.6454 15.5929 25.5148 16.2106C26.3147 16.779 26.6971 17.5559 26.6971 18.6073C26.6971 19.9434 26.1148 20.9061 25.1667 21.5814C24.1741 22.2884 22.7381 22.6979 21.1293 22.6979H5.36547V15.1292H20.769Z" fill="white"/>
<path d="M109.369 15.4534H132.32V10.3762H109.369V5.68972H132.32V0.648512H104.004V27.7031H109.369V15.4534Z" fill="white"/>
<path fill-rule="evenodd" clip-rule="evenodd" d="M49.8125 28.3516C54.1246 28.3516 58.3652 27.3575 61.568 25.0612C64.8297 22.7227 66.9066 19.1044 66.9066 14.1758C66.9066 9.26136 64.8176 5.64485 61.5548 3.30417C58.3494 1.00465 54.11 0 49.8125 0C45.4978 0 41.2576 1.00423 38.0557 3.30477C34.7963 5.64672 32.7183 9.26382 32.7183 14.1758C32.7183 19.1068 34.8062 22.7246 38.0712 25.0618C41.2776 27.3571 45.5174 28.3516 49.8125 28.3516ZM49.8194 23.4185H49.8125C46.4026 23.4185 43.4947 22.6141 41.4753 21.0976C39.5085 19.6206 38.2639 17.3832 38.2639 14.1758C38.2639 10.9882 39.5072 8.7493 41.4767 7.26651C43.4973 5.74522 46.4056 4.93313 49.8125 4.93313C53.2001 4.93313 56.1095 5.74468 58.1357 7.26728C60.1111 8.75164 61.361 10.9913 61.361 14.1758C61.361 17.4009 60.1077 19.6469 58.1371 21.1238C56.1143 22.6399 53.2081 23.4355 49.8194 23.4185Z" fill="white"/>
<path fill-rule="evenodd" clip-rule="evenodd" d="M84.8206 28.3516C89.1327 28.3516 93.3733 27.3575 96.5761 25.0612C99.8379 22.7227 101.915 19.1044 101.915 14.1758C101.915 9.26136 99.8257 5.64485 96.5629 3.30417C93.3575 1.00465 89.1181 0 84.8206 0C80.506 0 76.2657 1.00423 73.0639 3.30477C69.8044 5.64673 67.7265 9.26382 67.7265 14.1758C67.7265 19.1068 69.8143 22.7246 73.0793 25.0618C76.2858 27.3571 80.5255 28.3516 84.8206 28.3516ZM84.8275 23.4185H84.8206C81.4107 23.4185 78.5028 22.6141 76.4834 21.0976C74.5166 19.6206 73.2721 17.3832 73.2721 14.1758C73.2721 10.9882 74.5154 8.7493 76.4848 7.26651C78.5054 5.74522 81.4137 4.93313 84.8206 4.93313C88.2082 4.93313 91.1176 5.74468 93.1438 7.26728C95.1192 8.75164 96.3691 10.9913 96.3691 14.1758C96.3691 17.4009 95.1158 19.6469 93.1452 21.1238C91.1225 22.6399 88.2162 23.4355 84.8275 23.4185Z" fill="white"/>
<path d="M130.957 27.7391C132.562 27.7391 134 26.4573 134 24.7682C134 23.0823 132.603 21.7612 130.993 21.7612C129.286 21.7612 128.022 23.1433 128.022 24.7682C128.022 26.4132 129.306 27.7391 130.957 27.7391Z" fill="white"/>
</svg>
